<svg width="24" height="26" viewBox="0 0 24 26" fill="none" xmlns="http://www.w3.org/2000/svg">
<path d="M22.7754 8.5625C21.4629 2.7875 16.4254 0.1875 12.0004 0.1875C12.0004 0.1875 12.0004 0.1875 11.9879 0.1875C7.57536 0.1875 2.52536 2.775 1.21286 8.55C-0.249637 15 3.70036 20.4625 7.27536 23.9C8.60036 25.175 10.3004 25.8125 12.0004 25.8125C13.7004 25.8125 15.4004 25.175 16.7129 23.9C20.2879 20.4625 24.2379 15.0125 22.7754 8.5625ZM12.0004 14.825C9.82536 14.825 8.06286 13.0625 8.06286 10.8875C8.06286 8.7125 9.82536 6.95 12.0004 6.95C14.1754 6.95 15.9379 8.7125 15.9379 10.8875C15.9379 13.0625 14.1754 14.825 12.0004 14.825Z" fill="black"/>
</svg>
