<svg width="21" height="20" viewBox="0 0 21 20" fill="none" xmlns="http://www.w3.org/2000/svg">
<path d="M5.11666 16.2666C4.60832 16.2666 4.13332 16.0916 3.79166 15.7666C3.35832 15.3583 3.14999 14.7416 3.22499 14.075L3.53332 11.375C3.59166 10.8666 3.89999 10.1916 4.25832 9.82496L11.1 2.58329C12.8083 0.774959 14.5917 0.72496 16.4 2.43329C18.2083 4.14163 18.2583 5.92496 16.55 7.73329L9.70832 14.975C9.35832 15.35 8.70832 15.7 8.19999 15.7833L5.51666 16.2416C5.37499 16.25 5.24999 16.2666 5.11666 16.2666ZM13.775 2.42496C13.1333 2.42496 12.575 2.82496 12.0083 3.42496L5.16666 10.675C4.99999 10.85 4.80832 11.2666 4.77499 11.5083L4.46666 14.2083C4.43332 14.4833 4.49999 14.7083 4.64999 14.85C4.79999 14.9916 5.02499 15.0416 5.29999 15L7.98332 14.5416C8.22499 14.5 8.62499 14.2833 8.79166 14.1083L15.6333 6.86663C16.6667 5.76663 17.0417 4.74996 15.5333 3.33329C14.8667 2.69163 14.2917 2.42496 13.775 2.42496Z" fill="#292D32"/>
<path d="M14.9502 9.12504C14.9335 9.12504 14.9085 9.12504 14.8919 9.12504C12.2919 8.8667 10.2002 6.8917 9.8002 4.30837C9.7502 3.9667 9.98353 3.65004 10.3252 3.5917C10.6669 3.5417 10.9835 3.77504 11.0419 4.1167C11.3585 6.13337 12.9919 7.68337 15.0252 7.88337C15.3669 7.9167 15.6169 8.22504 15.5835 8.5667C15.5419 8.88337 15.2669 9.12504 14.9502 9.12504Z" fill="#292D32"/>
<path d="M18 18.9585H3C2.65833 18.9585 2.375 18.6752 2.375 18.3335C2.375 17.9918 2.65833 17.7085 3 17.7085H18C18.3417 17.7085 18.625 17.9918 18.625 18.3335C18.625 18.6752 18.3417 18.9585 18 18.9585Z" fill="#292D32"/>
</svg>
