<svg width="18" height="18" viewBox="0 0 18 18" fill="none" xmlns="http://www.w3.org/2000/svg">
<path d="M4.5 14.25C4.5 15.075 5.175 15.75 6 15.75H12C12.825 15.75 13.5 15.075 13.5 14.25V5.25H4.5V14.25ZM6.8775 9.4425C6.73727 9.30227 6.65848 9.11207 6.65848 8.91375C6.65848 8.71543 6.73727 8.52523 6.8775 8.385C7.01773 8.24477 7.20793 8.16598 7.40625 8.16598C7.60457 8.16598 7.79477 8.24477 7.935 8.385L9 9.4425L10.0575 8.385C10.1977 8.24477 10.3879 8.16598 10.5862 8.16598C10.7846 8.16598 10.9748 8.24477 11.115 8.385C11.2552 8.52523 11.334 8.71543 11.334 8.91375C11.334 9.11207 11.2552 9.30227 11.115 9.4425L10.0575 10.5L11.115 11.5575C11.1844 11.6269 11.2395 11.7094 11.2771 11.8001C11.3147 11.8908 11.334 11.9881 11.334 12.0863C11.334 12.1844 11.3147 12.2817 11.2771 12.3724C11.2395 12.4631 11.1844 12.5456 11.115 12.615C11.0456 12.6844 10.9631 12.7395 10.8724 12.7771C10.7817 12.8147 10.6844 12.834 10.5862 12.834C10.4881 12.834 10.3908 12.8147 10.3001 12.7771C10.2094 12.7395 10.1269 12.6844 10.0575 12.615L9 11.5575L7.9425 12.615C7.87306 12.6844 7.79063 12.7395 7.69991 12.7771C7.60918 12.8147 7.51195 12.834 7.41375 12.834C7.31555 12.834 7.21832 12.8147 7.12759 12.7771C7.03687 12.7395 6.95444 12.6844 6.885 12.615C6.81556 12.5456 6.76048 12.4631 6.7229 12.3724C6.68533 12.2817 6.66598 12.1844 6.66598 12.0863C6.66598 11.9881 6.68533 11.8908 6.7229 11.8001C6.76048 11.7094 6.81556 11.6269 6.885 11.5575L7.9425 10.5L6.8775 9.4425ZM13.5 3H11.625L11.0925 2.4675C10.9575 2.3325 10.7625 2.25 10.5675 2.25H7.4325C7.2375 2.25 7.0425 2.3325 6.9075 2.4675L6.375 3H4.5C4.0875 3 3.75 3.3375 3.75 3.75C3.75 4.1625 4.0875 4.5 4.5 4.5H13.5C13.9125 4.5 14.25 4.1625 14.25 3.75C14.25 3.3375 13.9125 3 13.5 3Z" fill="black"/>
</svg>
