<svg width="22" height="20" viewBox="0 0 22 20" fill="none" xmlns="http://www.w3.org/2000/svg">
<path d="M11 19.6496C10.69 19.6496 10.39 19.6096 10.14 19.5196C6.32 18.2096 0.25 13.5596 0.25 6.68961C0.25 3.18961 3.08 0.349609 6.56 0.349609C8.25 0.349609 9.83 1.00961 11 2.18961C12.17 1.00961 13.75 0.349609 15.44 0.349609C18.92 0.349609 21.75 3.19961 21.75 6.68961C21.75 13.5696 15.68 18.2096 11.86 19.5196C11.61 19.6096 11.31 19.6496 11 19.6496ZM6.56 1.84961C3.91 1.84961 1.75 4.01961 1.75 6.68961C1.75 13.5196 8.32 17.3196 10.63 18.1096C10.81 18.1696 11.2 18.1696 11.38 18.1096C13.68 17.3196 20.26 13.5296 20.26 6.68961C20.26 4.01961 18.1 1.84961 15.45 1.84961C13.93 1.84961 12.52 2.55961 11.61 3.78961C11.33 4.16961 10.69 4.16961 10.41 3.78961C9.48 2.54961 8.08 1.84961 6.56 1.84961Z" fill="#FF0000"/>
</svg>
