<svg width="145" height="97" viewBox="0 0 145 97" fill="none" xmlns="http://www.w3.org/2000/svg">
<path d="M42.5105 23.7186L20.8184 38.2793L42.185 70.3307L63.8772 55.77L42.5105 23.7186Z" fill="#F5F5F5"/>
<path d="M52.6674 54.2531L52.4218 55.7818L41.6377 54.2221L41.8832 52.6934L52.6674 54.2531Z" fill="#E0E0E0"/>
<path d="M47.2373 48.8008L48.784 49.0239L47.0691 59.6784L45.5205 59.4533L47.2373 48.8008Z" fill="#E0E0E0"/>
<path d="M37.3132 35.26C37.3287 35.2814 35.1556 36.7694 32.4586 38.5774C29.7616 40.3855 27.5634 41.8366 27.5479 41.8134C27.5325 41.7901 29.7055 40.304 32.4025 38.494C35.0995 36.684 37.2881 35.2368 37.3132 35.26Z" fill="#E0E0E0"/>
<path d="M45.2824 33.2502C45.2978 33.2734 41.6825 35.7256 37.2088 38.7287C32.735 41.7318 29.0888 44.1471 29.0772 44.1258C29.0656 44.1045 32.6732 41.6484 37.1527 38.6453C41.6322 35.6422 45.2669 33.2269 45.2824 33.2502Z" fill="#E0E0E0"/>
<path d="M46.881 35.6467C46.8965 35.6699 43.2811 38.124 38.8074 41.1272C34.3337 44.1303 30.6874 46.5456 30.6758 46.5223C30.6642 46.499 34.2757 44.0469 38.7513 41.0418C43.227 38.0367 46.8655 35.6234 46.881 35.6467Z" fill="#E0E0E0"/>
<path d="M48.4797 38.047C48.4952 38.0703 44.8799 40.5244 40.4061 43.5256C35.9324 46.5268 32.2861 48.946 32.2861 48.9227C32.2861 48.8994 35.8841 46.4453 40.3597 43.4422C44.8354 40.4391 48.4643 38.0238 48.4797 38.047Z" fill="#E0E0E0"/>
<path d="M50.0734 40.4474C50.0889 40.4707 46.4735 42.9229 41.9998 45.926C37.5261 48.9291 33.8798 51.3444 33.8701 51.3211C33.8605 51.2979 37.4739 48.8457 41.9534 45.8426C46.4329 42.8395 50.0734 40.4242 50.0734 40.4474Z" fill="#E0E0E0"/>
<path d="M115.046 45.1952L96.8281 57.4238L114.772 84.3411L132.99 72.1124L115.046 45.1952Z" fill="#F5F5F5"/>
<path d="M123.578 70.8447L123.371 72.1289L114.313 70.8194L114.522 69.5352L123.578 70.8447Z" fill="#E0E0E0"/>
<path d="M119.017 66.2637L120.317 66.4519L118.876 75.3991L117.575 75.211L119.017 66.2637Z" fill="#E0E0E0"/>
<path d="M110.676 54.901C110.691 54.9243 108.868 56.1756 106.602 57.6946C104.336 59.2137 102.488 60.4281 102.473 60.4106C102.457 60.3932 104.282 59.138 106.546 57.617C108.81 56.0961 110.66 54.8681 110.676 54.901Z" fill="#E0E0E0"/>
<path d="M117.375 53.2053C117.39 53.2286 114.357 55.2927 110.608 57.8128C106.859 60.3328 103.791 62.3621 103.775 62.3388C103.76 62.3155 106.793 60.2514 110.542 57.7294C114.291 55.2074 117.353 53.182 117.375 53.2053Z" fill="#E0E0E0"/>
<path d="M118.718 55.2189C118.734 55.2422 115.7 57.3064 111.952 59.8284C108.203 62.3504 105.135 64.3757 105.119 64.3524C105.104 64.3292 108.127 62.2747 111.886 59.7527C115.644 57.2307 118.707 55.1976 118.718 55.2189Z" fill="#E0E0E0"/>
<path d="M120.06 57.2306C120.076 57.2539 117.04 59.318 113.293 61.84C109.547 64.362 106.476 66.3874 106.461 66.3641C106.446 66.3408 109.479 64.2786 113.228 61.7547C116.976 59.2307 120.047 57.2112 120.06 57.2306Z" fill="#E0E0E0"/>
<path d="M121.414 59.2502C121.429 59.2735 118.396 61.3357 114.647 63.8577C110.898 66.3797 107.83 68.4051 107.815 68.3837C107.799 68.3624 110.832 66.2963 114.581 63.7743C118.33 61.2523 121.388 59.2269 121.414 59.2502Z" fill="#E0E0E0"/>
<path d="M86.2248 24.8969L66.3467 14.2285L50.6918 43.5993L70.5698 54.2677L86.2248 24.8969Z" fill="#F5F5F5"/>
<path d="M67.1672 45.0805L65.9067 45.5132L62.7051 36.6338L63.9675 36.1992L67.1672 45.0805Z" fill="#E0E0E0"/>
<path d="M69.1014 38.709L69.5616 39.9836L60.7726 43.0041L60.3125 41.7296L69.1014 38.709Z" fill="#E0E0E0"/>
<path d="M75.346 25.6087C75.3305 25.6378 73.316 24.5864 70.8432 23.2613C68.3705 21.9363 66.3811 20.8363 66.3966 20.8072C66.412 20.7781 68.4285 21.8296 70.9012 23.1546C73.374 24.4797 75.3614 25.5777 75.346 25.6087Z" fill="#E0E0E0"/>
<path d="M80.1176 30.8898C80.1021 30.9189 76.7652 29.1574 72.6646 26.9574C68.564 24.7575 65.2541 22.9494 65.2696 22.9203C65.2851 22.8912 68.6201 24.6508 72.7207 26.8527C76.8213 29.0546 80.133 30.8607 80.1176 30.8898Z" fill="#E0E0E0"/>
<path d="M78.9457 33.089C78.9302 33.1181 75.5933 31.3585 71.4927 29.1566C67.3921 26.9547 64.0822 25.1486 64.0977 25.1195C64.1132 25.0904 67.4482 26.8519 71.5488 29.0519C75.6494 31.2518 78.9612 33.0599 78.9457 33.089Z" fill="#E0E0E0"/>
<path d="M77.7738 35.2864C77.7584 35.3155 74.4214 33.556 70.3208 31.356C66.2202 29.156 62.9104 27.3538 62.9258 27.3189C62.9413 27.2839 66.2763 29.0493 70.3769 31.2493C74.4775 33.4493 77.7893 35.2573 77.7738 35.2864Z" fill="#E0E0E0"/>
<path d="M76.602 37.4855C76.5865 37.5146 73.2496 35.755 69.149 33.5551C65.0484 31.3551 61.7366 29.547 61.754 29.5179C61.7714 29.4888 65.1044 31.2484 69.205 33.4484C73.3056 35.6483 76.6174 37.4564 76.602 37.4855Z" fill="#E0E0E0"/>
<path opacity="0.2" d="M76.7049 0H76.2061V8.53212H76.7049V0Z" fill="black"/>
<path d="M110.27 20.4621C109.701 20.5921 109.425 21.2498 109.371 21.8318C109.316 22.4138 109.39 23.0307 109.146 23.5622C108.872 24.1598 108.216 24.6021 108.195 25.2597C108.182 25.6613 108.419 26.0357 108.408 26.4412C108.388 27.1008 107.719 27.6052 107.683 28.257C107.658 28.7323 107.973 29.1863 107.897 29.6558C107.839 30.0205 107.555 30.3076 107.435 30.6568C107.197 31.3552 107.675 32.1215 108.296 32.5134C108.643 32.7327 109.034 32.8733 109.442 32.9251C109.849 32.977 110.263 32.939 110.654 32.8137C111.046 32.6885 111.405 32.479 111.707 32.1999C112.009 31.9209 112.247 31.5789 112.404 31.1981C112.748 30.36 112.673 29.4152 112.597 28.5131C112.365 25.6988 112.193 22.8806 112.079 20.0586" fill="#263238"/>
<path d="M108.618 30.3913C108.735 30.3184 108.826 30.2105 108.879 30.0828C108.935 29.931 108.957 29.7689 108.945 29.6075C108.924 29.3936 108.876 29.1832 108.804 28.9809C108.711 28.7267 108.677 28.4549 108.703 28.1855C108.752 27.8829 108.968 27.6346 109.163 27.3901C109.269 27.2705 109.356 27.1366 109.424 26.9924C109.492 26.8466 109.504 26.6804 109.455 26.5268C109.355 26.2106 109.045 25.9778 108.904 25.6111C108.838 25.4296 108.827 25.2324 108.873 25.0447C108.917 24.8687 108.982 24.6987 109.067 24.5383C109.23 24.2496 109.36 23.943 109.453 23.6246C109.589 23.0096 109.525 22.4218 109.618 21.9387C109.669 21.5518 109.84 21.1909 110.107 20.9066C110.182 20.8301 110.268 20.7647 110.362 20.7126C110.394 20.6957 110.429 20.6833 110.464 20.6758C110.343 20.7427 110.232 20.8263 110.134 20.9241C109.887 21.2112 109.731 21.5659 109.687 21.9426C109.653 22.1999 109.635 22.4591 109.633 22.7186C109.633 23.024 109.603 23.3287 109.544 23.6285C109.452 23.9542 109.322 24.268 109.158 24.5635C109.013 24.8681 108.879 25.2251 109.007 25.5588C109.134 25.8924 109.442 26.1233 109.56 26.4803C109.613 26.6566 109.6 26.8464 109.523 27.0138C109.448 27.1724 109.35 27.3194 109.233 27.4503C109.04 27.6947 108.829 27.9275 108.782 28.1991C108.755 28.4567 108.786 28.7171 108.871 28.9615C108.94 29.1701 108.983 29.3864 108.999 29.6056C109.009 29.7744 108.979 29.9431 108.912 30.0984C108.87 30.1957 108.804 30.2801 108.719 30.3428C108.688 30.365 108.654 30.3815 108.618 30.3913Z" fill="#455A64"/>
<path d="M107.106 34.9902L105.366 40.0342L98.0891 40.4222L96.875 43.1382L104.473 43.9142C104.832 44.0621 105.217 44.1354 105.605 44.1298C105.993 44.1241 106.376 44.0396 106.73 43.8813C107.085 43.723 107.404 43.4942 107.668 43.2088C107.932 42.9234 108.135 42.5872 108.266 42.2206L110.294 36.5403L107.106 34.9902Z" fill="#B78876"/>
<path d="M122.15 82.5861C122.15 82.5861 116.818 65.5879 116.703 65.0369C116.601 64.5364 118.637 52.3047 118.896 49.1289L111.69 49.3986V49.4703L108.628 49.6411L111.369 84.3903H114.685L114.356 72.857C116.402 78.3647 119.333 83.9791 119.333 83.9791L122.15 82.5861Z" fill="#B78876"/>
<path d="M114.491 76.9945C114.491 76.8898 114.451 73.1301 114.451 73.1301C114.41 73.3551 113.18 69.867 113.209 69.6555C113.225 69.5449 114.491 76.9945 114.491 76.9945Z" fill="#A36957"/>
<path d="M113.07 68.002C113.053 68.0711 113.046 68.1423 113.049 68.2134C113.038 68.4073 113.038 68.6016 113.049 68.7954C113.049 68.9176 113.066 69.0496 113.082 69.1931C113.097 69.3367 113.119 69.488 113.152 69.6451C113.22 69.9883 113.311 70.3266 113.424 70.6578C113.664 71.362 113.931 71.977 114.118 72.4232C114.207 72.6172 114.284 72.8015 114.35 72.949C114.374 73.0175 114.406 73.0828 114.447 73.143C114.437 73.0759 114.417 73.0106 114.389 72.949C114.344 72.8209 114.277 72.6366 114.195 72.4096C114.025 71.9557 113.77 71.3349 113.532 70.6384C113.42 70.312 113.328 69.979 113.256 69.6413C113.221 69.4861 113.198 69.3367 113.177 69.197C113.155 69.0573 113.14 68.9254 113.13 68.809C113.107 68.5684 113.097 68.3744 113.092 68.2386C113.095 68.1591 113.088 68.0795 113.07 68.002Z" fill="#A36957"/>
<path d="M111.308 84.5652V84.2529L114.705 84.1035L114.714 85.3936L114.506 85.4072C113.572 85.4615 109.759 85.6206 109.137 85.4324C108.439 85.2229 111.308 84.5652 111.308 84.5652Z" fill="#455A64"/>
<path d="M114.759 85.3164C114.739 85.3177 114.72 85.3177 114.701 85.3164L114.534 85.328L113.92 85.3552C113.401 85.3765 112.684 85.3959 111.893 85.3998C111.103 85.4037 110.384 85.3901 109.863 85.3746L109.251 85.3494H109.082H109.024C109.044 85.3478 109.063 85.3478 109.082 85.3494H109.251L109.865 85.361C110.384 85.361 111.101 85.3765 111.892 85.3727C112.682 85.3688 113.401 85.3552 113.92 85.3416L114.534 85.3261H114.759V85.3164Z" fill="#263238"/>
<path d="M110.2 85.4261C110.172 85.3246 110.133 85.2264 110.084 85.1332C110.023 85.0472 109.952 84.9684 109.873 84.8984C109.979 84.9363 110.066 85.0124 110.119 85.1118C110.183 85.2034 110.211 85.315 110.2 85.4261Z" fill="#263238"/>
<path d="M111.201 84.9145C111.201 84.9145 111.145 84.8621 111.095 84.7845C111.045 84.7069 111.014 84.639 111.023 84.6332C111.033 84.6274 111.079 84.6837 111.13 84.7613C111.18 84.8389 111.211 84.9087 111.201 84.9145Z" fill="#263238"/>
<path d="M111.475 84.7771C111.475 84.7868 111.413 84.75 111.355 84.6976C111.297 84.6452 111.255 84.5967 111.263 84.589C111.27 84.5812 111.324 84.6161 111.382 84.6685C111.44 84.7209 111.483 84.7597 111.475 84.7771Z" fill="#263238"/>
<path d="M111.648 84.4468C111.591 84.4677 111.53 84.4757 111.47 84.4701C111.411 84.478 111.35 84.472 111.294 84.4526C111.35 84.4318 111.41 84.4239 111.47 84.4293C111.53 84.4212 111.591 84.4271 111.648 84.4468Z" fill="#263238"/>
<path d="M111.706 84.2228C111.648 84.2603 111.581 84.2805 111.513 84.281C111.447 84.2897 111.38 84.2803 111.319 84.2538C111.383 84.243 111.448 84.2378 111.513 84.2383C111.576 84.2269 111.641 84.2217 111.706 84.2228Z" fill="#263238"/>
<path d="M111.087 84.6187C111.015 84.6322 110.941 84.6322 110.869 84.6187C110.791 84.6092 110.714 84.5923 110.639 84.5682C110.592 84.5553 110.548 84.5371 110.505 84.5139C110.48 84.4987 110.46 84.4745 110.451 84.446C110.448 84.4298 110.449 84.413 110.455 84.3974C110.461 84.3819 110.471 84.3685 110.484 84.3587C110.538 84.3327 110.596 84.3189 110.656 84.3184C110.715 84.3178 110.774 84.3306 110.828 84.3556C110.882 84.3807 110.93 84.4174 110.968 84.4633C111.006 84.5091 111.034 84.5628 111.049 84.6206C111.052 84.6398 111.052 84.6596 111.049 84.6788C111.027 84.6087 110.993 84.543 110.948 84.4848C110.897 84.4267 110.829 84.3849 110.755 84.3645C110.669 84.3368 110.576 84.3437 110.496 84.3839C110.463 84.4091 110.476 84.4499 110.513 84.4732C110.553 84.4946 110.594 84.5121 110.637 84.5255C110.71 84.5495 110.784 84.5683 110.859 84.5818C111.004 84.6128 111.087 84.6128 111.087 84.6187Z" fill="#263238"/>
<path d="M111.031 84.6299C111.003 84.5849 110.993 84.5307 111.004 84.4786C111.011 84.4216 111.032 84.367 111.064 84.3196C111.082 84.2872 111.108 84.2599 111.14 84.2402C111.171 84.2205 111.207 84.2091 111.244 84.207C111.266 84.2121 111.285 84.2254 111.298 84.2441C111.31 84.2628 111.315 84.2856 111.312 84.3079C111.307 84.3426 111.294 84.3758 111.275 84.4049C111.246 84.453 111.211 84.4979 111.173 84.5388C111.139 84.5775 111.096 84.6074 111.049 84.6261C111.049 84.6261 111.091 84.5873 111.151 84.5174C111.186 84.4774 111.216 84.4339 111.242 84.3874C111.271 84.3409 111.292 84.2575 111.242 84.2478C111.192 84.2381 111.134 84.2982 111.101 84.3409C111.07 84.383 111.049 84.4313 111.039 84.4825C111.031 84.5312 111.029 84.5807 111.031 84.6299Z" fill="#263238"/>
<path d="M114.687 84.3885C114.687 84.3885 114.59 84.3885 114.437 84.3982C114.238 84.4221 114.05 84.5015 113.894 84.6273C113.738 84.7532 113.62 84.9205 113.554 85.1102C113.503 85.2557 113.499 85.3546 113.492 85.3527C113.484 85.3507 113.492 85.3275 113.492 85.2848C113.497 85.2223 113.508 85.1605 113.527 85.1005C113.588 84.9019 113.706 84.7258 113.867 84.5941C114.029 84.4649 114.227 84.3872 114.433 84.371C114.497 84.3633 114.562 84.3633 114.627 84.371C114.647 84.3743 114.667 84.3801 114.687 84.3885Z" fill="#263238"/>
<path d="M113.061 85.045C112.899 85.0829 112.733 85.0992 112.566 85.0935C112.401 85.1018 112.235 85.0875 112.073 85.0508C112.073 85.0392 112.294 85.0508 112.566 85.0508C112.839 85.0508 113.059 85.0334 113.061 85.045Z" fill="#263238"/>
<path d="M113.723 85.0389C113.723 85.0389 113.705 85.0855 113.682 85.1359C113.659 85.1864 113.647 85.2329 113.636 85.231C113.624 85.2291 113.618 85.1786 113.645 85.1185C113.672 85.0583 113.715 85.0292 113.723 85.0389Z" fill="#263238"/>
<path d="M113.972 84.7269C113.972 84.7269 113.958 84.7696 113.923 84.8046C113.888 84.8395 113.854 84.8627 113.844 84.855C113.834 84.8472 113.858 84.8123 113.892 84.7754C113.927 84.7386 113.962 84.7172 113.972 84.7269Z" fill="#263238"/>
<path d="M114.327 84.5837C114.327 84.5954 114.281 84.5954 114.23 84.6128C114.18 84.6303 114.145 84.6574 114.136 84.6497C114.126 84.6419 114.155 84.5954 114.217 84.574C114.279 84.5527 114.331 84.5721 114.327 84.5837Z" fill="#263238"/>
<path d="M114.581 84.5131C114.581 84.5248 114.567 84.5422 114.538 84.5519C114.509 84.5616 114.484 84.5636 114.48 84.5519C114.476 84.5403 114.495 84.5228 114.523 84.5131C114.55 84.5034 114.577 84.5034 114.581 84.5131Z" fill="#263238"/>
<path d="M119.265 84.2651L119.137 83.9799L122.174 82.4492L122.71 83.6132L122.516 83.7122C121.687 84.1448 118.275 85.8559 117.629 85.9412C116.916 86.044 119.265 84.2651 119.265 84.2651Z" fill="#455A64"/>
<path d="M122.722 83.5293L122.672 83.5603L122.523 83.6379L121.974 83.9173C121.51 84.1482 120.864 84.4605 120.143 84.7903C119.422 85.1201 118.761 85.4014 118.281 85.6012L117.711 85.8321L117.556 85.8922C117.538 85.9005 117.519 85.9064 117.5 85.9097L117.552 85.8845L117.705 85.8166L118.269 85.5741C118.747 85.3684 119.404 85.0813 120.125 84.7515C120.847 84.4217 121.494 84.1152 121.962 83.8901L122.515 83.6244L122.668 83.5526L122.722 83.5293Z" fill="#263238"/>
<path d="M118.614 85.5035C118.547 85.4217 118.471 85.3475 118.388 85.2824C118.297 85.2285 118.2 85.1855 118.1 85.1543C118.211 85.1529 118.319 85.1855 118.411 85.248C118.503 85.3104 118.574 85.3996 118.614 85.5035Z" fill="#263238"/>
<path d="M119.311 84.6255C119.311 84.6255 119.238 84.6022 119.16 84.5517C119.083 84.5013 119.027 84.4528 119.033 84.4431C119.038 84.4334 119.106 84.4664 119.183 84.5168C119.261 84.5673 119.317 84.6158 119.311 84.6255Z" fill="#263238"/>
<path d="M119.501 84.3893C119.501 84.399 119.435 84.3893 119.36 84.3661C119.285 84.3428 119.229 84.3137 119.231 84.302C119.279 84.2974 119.329 84.3055 119.374 84.3253C119.447 84.3428 119.505 84.3699 119.501 84.3893Z" fill="#263238"/>
<path d="M119.528 84.0176C119.528 84.0292 119.464 84.07 119.375 84.1126C119.324 84.1435 119.267 84.1627 119.207 84.1689C119.207 84.1573 119.271 84.1165 119.358 84.0738C119.41 84.0431 119.468 84.0239 119.528 84.0176Z" fill="#263238"/>
<path d="M119.49 83.7882C119.49 83.7882 119.434 83.8658 119.333 83.9221C119.276 83.9609 119.209 83.9812 119.14 83.9803C119.195 83.9429 119.254 83.9111 119.316 83.8852C119.41 83.8329 119.48 83.7785 119.49 83.7882Z" fill="#263238"/>
<path d="M119.093 84.4051C119.034 84.4456 118.969 84.4758 118.9 84.4943C118.824 84.5165 118.746 84.5327 118.668 84.5428C118.62 84.5487 118.572 84.5487 118.525 84.5428C118.495 84.5405 118.467 84.5266 118.447 84.504C118.438 84.4901 118.434 84.474 118.434 84.4574C118.434 84.4409 118.438 84.4247 118.447 84.4109C118.506 84.3394 118.588 84.2907 118.678 84.273C118.769 84.2553 118.863 84.2697 118.944 84.3139C118.992 84.3391 119.034 84.3741 119.068 84.4167C119.091 84.4477 119.101 84.4671 119.099 84.4691C119.051 84.4157 118.994 84.3717 118.931 84.3391C118.863 84.307 118.787 84.2956 118.712 84.3061C118.668 84.3107 118.625 84.3241 118.586 84.3454C118.547 84.3667 118.512 84.3955 118.484 84.4303C118.463 84.4671 118.484 84.4982 118.536 84.504C118.581 84.5079 118.625 84.5079 118.67 84.504C118.747 84.4962 118.823 84.4826 118.898 84.4633C119.008 84.4322 119.093 84.3992 119.093 84.4051Z" fill="#263238"/>
<path d="M119.039 84.4379C118.996 84.4072 118.966 84.3616 118.954 84.3098C118.937 84.2553 118.933 84.1975 118.942 84.1411C118.946 84.1038 118.959 84.0681 118.98 84.0372C119 84.0063 119.029 83.9813 119.062 83.9645C119.111 83.949 119.223 84.0479 119.231 84.0848C119.238 84.1217 119.174 84.1023 119.171 84.1333C119.164 84.1884 119.151 84.2425 119.132 84.2943C119.118 84.3442 119.091 84.3897 119.055 84.4262C119.055 84.4262 119.078 84.3739 119.105 84.2866C119.119 84.2351 119.128 84.1825 119.134 84.1294C119.134 84.0751 119.134 83.9917 119.072 84.0053C119.01 84.0188 118.993 84.0945 118.979 84.1488C118.967 84.1992 118.967 84.2517 118.979 84.3021C118.995 84.349 119.015 84.3945 119.039 84.4379Z" fill="#263238"/>
<path d="M122.278 82.7129C122.278 82.7129 122.185 82.7459 122.053 82.8254C121.881 82.9285 121.742 83.0777 121.649 83.2561C121.56 83.4362 121.522 83.6376 121.539 83.8381C121.551 83.9933 121.587 84.0825 121.58 84.0864C121.567 84.0672 121.557 84.0463 121.551 84.0243C121.532 83.9649 121.518 83.9039 121.51 83.842C121.482 83.6354 121.518 83.4252 121.612 83.2395C121.707 83.0537 121.855 82.9012 122.038 82.8021C122.093 82.7717 122.15 82.747 122.21 82.7284C122.232 82.7199 122.254 82.7147 122.278 82.7129Z" fill="#263238"/>
<path d="M121.061 83.983C120.789 84.1732 120.484 84.3125 120.162 84.3942C120.162 84.3826 120.365 84.305 120.613 84.2002C120.86 84.0955 121.055 83.9733 121.061 83.983Z" fill="#263238"/>
<path d="M121.663 83.7036C121.672 83.7036 121.663 83.7521 121.663 83.8084C121.663 83.8646 121.663 83.9112 121.663 83.9151C121.663 83.919 121.624 83.8724 121.624 83.8084C121.624 83.7444 121.653 83.6978 121.663 83.7036Z" fill="#263238"/>
<path d="M121.761 83.3167C121.771 83.3167 121.761 83.3613 121.75 83.4079C121.738 83.4544 121.709 83.4894 121.699 83.4855C121.69 83.4816 121.699 83.4409 121.711 83.3943C121.722 83.3477 121.75 83.3128 121.761 83.3167Z" fill="#263238"/>
<path d="M122.027 83.0321C122.027 83.0438 121.989 83.0612 121.95 83.0981C121.911 83.135 121.89 83.1738 121.88 83.1699C121.871 83.166 121.88 83.1117 121.923 83.0671C121.965 83.0224 122.025 83.0321 122.027 83.0321Z" fill="#263238"/>
<path d="M122.231 82.8716C122.231 82.8716 122.231 82.9026 122.207 82.9239C122.184 82.9453 122.163 82.9569 122.155 82.9492C122.148 82.9414 122.155 82.9181 122.178 82.8968C122.202 82.8754 122.223 82.8638 122.231 82.8716Z" fill="#263238"/>
<path d="M118.428 43.3846L117.863 36.4588L120.763 36.5112C120.763 36.5112 120.897 35.4888 120.469 33.2501C120.206 31.8765 119.296 31.0346 118.273 30.5341V30.5147L118.184 30.4914C117.342 30.1121 116.443 29.8767 115.524 29.7949L111.957 29.8357C111.957 29.8357 109.233 29.4865 107.731 31.4439C107.151 32.1947 105.351 37.3338 105.351 37.3338L109.633 39.4018L109.233 36.5519C109.233 36.5519 109.314 38.618 109.577 39.2679C109.722 39.6327 110.157 40.7656 110.157 40.7656L110.101 44.1839L118.428 43.3846Z" fill="#FF5C46"/>
<path d="M116.461 35.4545L115.932 37.7165H120.925L120.597 33.9219L116.461 35.4545Z" fill="#FF5C46"/>
<path d="M120.925 37.7165C120.707 37.6762 120.486 37.6541 120.264 37.6506C119.854 37.6273 119.298 37.606 118.663 37.6098C118.029 37.6137 117.47 37.6409 117.061 37.6719C116.839 37.6797 116.618 37.7069 116.401 37.7534C116.623 37.7711 116.845 37.7711 117.066 37.7534C117.474 37.7398 118.033 37.7243 118.663 37.7224C119.294 37.7204 119.852 37.7224 120.262 37.7321C120.483 37.7445 120.705 37.7393 120.925 37.7165Z" fill="#263238"/>
<path d="M116.245 33.9043C116.222 34.0973 116.216 34.2922 116.23 34.4863C116.23 34.8413 116.245 35.3302 116.267 35.8715C116.288 36.4127 116.313 36.9035 116.336 37.2566C116.337 37.4522 116.358 37.6472 116.398 37.8386C116.422 37.6456 116.427 37.4507 116.414 37.2566C116.414 36.9016 116.398 36.4108 116.377 35.8695C116.356 35.3283 116.331 34.8394 116.307 34.4844C116.307 34.2894 116.286 34.095 116.245 33.9043Z" fill="#263238"/>
<g opacity="0.3">
<path d="M111.702 35.8633C111.702 35.8633 112.812 44.1219 115.932 43.9026C115.932 43.9026 117.338 43.8871 117.788 42.9501V42.5815L111.702 35.8633Z" fill="black"/>
</g>
<g opacity="0.3">
<path d="M116.245 34.3926L115.647 38.4414L116.034 39.1514L116.672 37.7624L116.401 37.7546L116.245 34.3926Z" fill="black"/>
</g>
<path d="M110.14 40.7712C110.103 40.7107 110.074 40.6455 110.055 40.5772C110.007 40.4511 109.943 40.2668 109.862 40.0359C109.668 39.4344 109.509 38.8223 109.384 38.2026C109.26 37.5826 109.181 36.9543 109.148 36.3228C109.137 36.0803 109.133 35.8843 109.137 35.7408C109.132 35.6706 109.136 35.6002 109.15 35.5312C109.166 35.5312 109.177 35.83 109.218 36.3073C109.272 36.9331 109.361 37.5554 109.483 38.1716C109.626 38.8933 109.798 39.5393 109.929 40.003C109.991 40.2183 110.043 40.4026 110.086 40.5539C110.113 40.6239 110.131 40.6969 110.14 40.7712Z" fill="#263238"/>
<path d="M111.4 43.1429C111.373 43.1429 111.296 42.9741 111.228 42.7549C111.17 42.6206 111.144 42.4744 111.153 42.3281C111.238 42.4467 111.297 42.5823 111.325 42.7258C111.381 42.8576 111.406 43 111.4 43.1429Z" fill="#263238"/>
<path d="M111.831 43.1129C111.685 42.7237 111.679 42.2956 111.814 41.9023C111.829 42.1038 111.829 42.3061 111.814 42.5076C111.835 42.7086 111.841 42.911 111.831 43.1129Z" fill="#263238"/>
<path d="M109.721 39.4977C109.707 39.521 108.711 39.0476 107.495 38.4385C106.279 37.8293 105.303 37.3133 105.315 37.2881C105.326 37.2628 106.324 37.7381 107.54 38.3473C108.756 38.9565 109.732 39.4725 109.721 39.4977Z" fill="#263238"/>
<path d="M111.476 30.505C111.497 29.5233 111.503 28.4912 111.503 28.4912C111.503 28.4912 110.248 28.2487 110.029 26.592C109.821 25.0128 110.405 21.3055 110.405 21.3055C112.237 20.611 114.142 21.2415 115.396 22.7314L115.085 30.699C115.048 31.6243 114.227 32.3305 113.241 32.2839C112.243 32.2354 111.454 31.44 111.476 30.505Z" fill="#B78876"/>
<path d="M110.308 24.2685C110.306 24.3229 110.325 24.3758 110.361 24.4166C110.397 24.4573 110.447 24.4828 110.501 24.4877C110.528 24.4904 110.556 24.4874 110.582 24.4789C110.609 24.4705 110.633 24.4568 110.654 24.4387C110.675 24.4205 110.691 24.3983 110.703 24.3734C110.715 24.3484 110.722 24.3213 110.723 24.2937C110.725 24.2395 110.706 24.1868 110.67 24.1463C110.634 24.1059 110.584 24.0809 110.53 24.0764C110.503 24.0722 110.474 24.0741 110.448 24.0818C110.421 24.0895 110.396 24.103 110.375 24.1212C110.354 24.1394 110.337 24.162 110.325 24.1875C110.314 24.2129 110.308 24.2405 110.308 24.2685Z" fill="#263238"/>
<path d="M110.231 23.9912C110.256 24.0183 110.424 23.9039 110.647 23.9116C110.869 23.9194 111.033 24.0358 111.06 24.0086C111.088 23.9815 111.049 23.9465 110.977 23.8903C110.88 23.8199 110.764 23.7813 110.645 23.7797C110.527 23.7752 110.411 23.8092 110.314 23.8767C110.243 23.9291 110.218 23.9776 110.231 23.9912Z" fill="#263238"/>
<path d="M112.611 24.413C112.608 24.4675 112.627 24.5208 112.663 24.5616C112.699 24.6025 112.75 24.6278 112.804 24.6322C112.832 24.6364 112.86 24.6346 112.887 24.6267C112.914 24.6189 112.939 24.6053 112.96 24.5868C112.981 24.5684 112.998 24.5455 113.009 24.5199C113.021 24.4942 113.027 24.4663 113.026 24.4382C113.028 24.3839 113.009 24.3309 112.973 24.2904C112.937 24.2498 112.887 24.2249 112.833 24.2209C112.805 24.2168 112.777 24.2186 112.75 24.2263C112.724 24.234 112.699 24.2475 112.678 24.2657C112.657 24.284 112.64 24.3066 112.628 24.332C112.616 24.3574 112.61 24.385 112.611 24.413Z" fill="#263238"/>
<path d="M112.595 24.1355C112.621 24.1646 112.789 24.0502 113.011 24.056C113.233 24.0618 113.398 24.1802 113.427 24.153C113.456 24.1258 113.413 24.0909 113.342 24.0366C113.246 23.9644 113.131 23.9249 113.011 23.9241C112.893 23.9205 112.777 23.9545 112.679 24.0211C112.609 24.0735 112.584 24.122 112.595 24.1355Z" fill="#263238"/>
<path d="M111.729 25.8016C111.61 25.7607 111.487 25.7353 111.362 25.726C111.304 25.726 111.25 25.7046 111.242 25.6658C111.237 25.6052 111.252 25.5447 111.284 25.4932L111.466 25.0567C111.635 24.6857 111.774 24.3016 111.882 23.9082C111.684 24.2647 111.514 24.6364 111.375 25.0198C111.315 25.1731 111.255 25.3205 111.199 25.4602C111.162 25.5295 111.149 25.6098 111.164 25.6872C111.172 25.7082 111.184 25.7272 111.2 25.7427C111.217 25.7582 111.236 25.7697 111.257 25.7764C111.289 25.7857 111.322 25.791 111.356 25.7919C111.479 25.811 111.605 25.8143 111.729 25.8016Z" fill="#263238"/>
<path d="M111.503 28.4925C112.276 28.5236 113.043 28.3389 113.719 27.959C113.719 27.959 113.156 29.0784 111.515 28.8824L111.503 28.4925Z" fill="#A36957"/>
<path d="M113.322 23.4725C113.275 23.5443 113.101 23.5132 112.908 23.4725C112.715 23.4317 112.545 23.3988 112.521 23.3153C112.498 23.2319 112.701 23.1213 112.96 23.1737C113.219 23.2261 113.368 23.4104 113.322 23.4725Z" fill="#263238"/>
<path d="M111.066 23.1442C111.049 23.2276 110.863 23.2586 110.65 23.2683C110.438 23.278 110.25 23.2683 110.225 23.183C110.2 23.0976 110.38 22.9773 110.637 22.9657C110.894 22.9541 111.083 23.0646 111.066 23.1442Z" fill="#263238"/>
<path d="M111.733 26.3465C111.708 26.3407 111.683 26.3433 111.66 26.3538C111.637 26.3644 111.619 26.3823 111.607 26.4047C111.596 26.4245 111.591 26.4468 111.591 26.4694C111.591 26.4921 111.597 26.5143 111.609 26.5338C111.62 26.5534 111.636 26.5696 111.656 26.5808C111.676 26.5921 111.698 26.598 111.72 26.598C111.743 26.598 111.765 26.5921 111.785 26.5808C111.804 26.5696 111.821 26.5534 111.832 26.5338C111.843 26.5143 111.85 26.4921 111.85 26.4694C111.85 26.4468 111.844 26.4245 111.833 26.4047C111.82 26.3786 111.797 26.3581 111.77 26.3464C111.743 26.3348 111.713 26.3328 111.685 26.3407" fill="#A36957"/>
<path d="M111.785 26.3697C111.785 26.36 111.748 26.3038 111.649 26.3251C111.62 26.3328 111.593 26.3482 111.571 26.3696C111.55 26.3911 111.534 26.4179 111.526 26.4473C111.515 26.4845 111.516 26.5239 111.528 26.5605C111.54 26.5971 111.563 26.6293 111.593 26.653C111.626 26.6751 111.664 26.6869 111.703 26.6869C111.742 26.6869 111.78 26.6751 111.812 26.653C111.838 26.6356 111.858 26.6112 111.87 26.5827C111.882 26.5541 111.886 26.5227 111.881 26.4919C111.862 26.3891 111.787 26.3736 111.783 26.3872C111.779 26.4008 111.81 26.4357 111.804 26.4958C111.803 26.5107 111.798 26.525 111.79 26.5375C111.782 26.55 111.771 26.5604 111.758 26.5676C111.743 26.5763 111.726 26.5809 111.708 26.5809C111.691 26.5809 111.674 26.5763 111.659 26.5676C111.646 26.5561 111.635 26.5413 111.629 26.5247C111.623 26.508 111.621 26.4901 111.624 26.4725C111.627 26.4572 111.632 26.4427 111.642 26.4302C111.651 26.4177 111.663 26.4076 111.677 26.4008C111.731 26.3678 111.779 26.3833 111.785 26.3697Z" fill="#263238"/>
<path d="M114.646 24.6772C114.453 25.1312 113.973 25.4823 114.039 25.9731C114.082 26.2894 114.285 26.5842 114.246 26.9024C114.196 27.2904 113.784 27.5775 113.724 27.9752C113.652 28.4622 114.126 28.8405 114.314 29.2944C114.59 29.9579 114.238 30.7029 114.229 31.4284C114.24 31.9793 114.45 32.5073 114.82 32.9147C115.189 33.3221 115.694 33.5811 116.239 33.6439C116.68 33.6808 117.177 33.5469 117.399 33.1667C117.593 32.8524 117.55 32.4528 117.662 32.1055C117.832 31.5856 118.325 31.2053 118.436 30.6699C118.629 29.6999 117.45 28.8851 117.527 27.8918C117.56 27.4669 117.821 27.0984 117.931 26.6871C118.001 26.4168 118.007 26.1337 117.947 25.8609C117.887 25.5881 117.764 25.3334 117.587 25.1176C117.295 24.7703 116.873 24.5356 116.62 24.1631C116.34 23.7344 116.33 23.1931 116.233 22.6868C116.104 22.0713 115.82 21.499 115.41 21.0232C115 20.5474 114.477 20.1837 113.888 19.966C113.3 19.7484 112.667 19.684 112.047 19.7788C111.427 19.8736 110.841 20.1246 110.345 20.5082C110.345 20.5082 110.064 21.7866 111.373 22.002C112.682 22.2173 113.287 21.969 113.434 22.4947C113.399 22.7113 113.416 22.933 113.484 23.1418C113.551 23.3505 113.666 23.5403 113.821 23.6956C114.354 24.2737 114.863 24.1495 114.646 24.6772Z" fill="#263238"/>
<path d="M116.725 33.546C116.685 33.5473 116.644 33.5434 116.605 33.5343C116.492 33.5142 116.38 33.4836 116.272 33.4431C115.873 33.2896 115.523 33.0301 115.259 32.6924C115.075 32.4593 114.929 32.1971 114.83 31.9164C114.717 31.5966 114.658 31.2603 114.654 30.9211C114.65 30.5473 114.697 30.1746 114.793 29.8134C114.846 29.6226 114.911 29.4354 114.987 29.2527C115.067 29.0709 115.137 28.8851 115.198 28.696C115.251 28.5096 115.251 28.312 115.198 28.1256C115.141 27.9421 115.068 27.7642 114.979 27.594C114.889 27.4253 114.814 27.2495 114.753 27.0683C114.693 26.889 114.679 26.6976 114.712 26.5115C114.79 26.1468 115.01 25.8752 115.141 25.5978C115.267 25.341 115.326 25.057 115.315 24.7713C115.298 24.3533 115.147 23.952 114.884 23.6267C114.783 23.5128 114.674 23.4059 114.558 23.3066C114.693 23.3831 114.814 23.4829 114.915 23.6015C115.197 23.9263 115.363 24.3358 115.387 24.7655C115.403 25.0637 115.345 25.3611 115.217 25.6308C115.083 25.9179 114.869 26.1914 114.803 26.5251C114.737 26.8588 114.894 27.2099 115.066 27.5475C115.16 27.7225 115.236 27.9064 115.294 28.0965C115.351 28.2995 115.351 28.5143 115.294 28.7173C115.23 28.913 115.156 29.1053 115.072 29.2935C114.996 29.4722 114.931 29.6556 114.879 29.8425C114.783 30.1945 114.735 30.5581 114.737 30.9231C114.731 31.5447 114.931 32.1506 115.306 32.6458C115.556 32.9793 115.89 33.2409 116.272 33.4043C116.561 33.5169 116.727 33.5343 116.725 33.546Z" fill="#455A64"/>
<path d="M116.532 23.7561C116.438 23.7805 116.341 23.7948 116.244 23.7987C115.978 23.8272 115.711 23.82 115.447 23.7774C115.248 23.7477 115.056 23.6784 114.883 23.5735C114.711 23.4685 114.561 23.3301 114.442 23.1663C114.331 22.959 114.243 22.7405 114.179 22.5145C114.096 22.2886 113.941 22.0968 113.738 21.9693C113.315 21.6997 112.818 21.6667 112.385 21.6143C111.985 21.5943 111.598 21.4728 111.258 21.2612C111.03 21.1099 110.866 20.88 110.796 20.6152C110.779 20.5434 110.774 20.4693 110.782 20.396C110.782 20.3455 110.794 20.3203 110.798 20.3203C110.8 20.4164 110.812 20.512 110.834 20.6055C110.914 20.8531 111.079 21.0646 111.298 21.203C111.632 21.3983 112.008 21.5076 112.394 21.5212C112.828 21.5716 113.342 21.5968 113.794 21.884C114.016 22.0235 114.184 22.233 114.274 22.4795C114.334 22.6999 114.418 22.9132 114.523 23.1159C114.748 23.4258 115.086 23.6348 115.463 23.6979C115.718 23.7454 115.977 23.763 116.236 23.7502C116.335 23.7447 116.434 23.7466 116.532 23.7561Z" fill="#455A64"/>
<path d="M116.052 22.1772C115.979 22.2017 115.903 22.2128 115.826 22.2102C115.465 22.2126 115.118 22.0734 114.859 21.8222C114.741 21.7032 114.64 21.568 114.559 21.4206C114.385 21.1257 114.217 20.763 113.856 20.6116C113.507 20.4944 113.136 20.4618 112.773 20.5166C112.467 20.5598 112.155 20.5598 111.849 20.5166C111.636 20.4869 111.435 20.3982 111.269 20.2605C111.226 20.223 111.188 20.1799 111.157 20.1325C111.134 20.0988 111.124 20.0814 111.128 20.0801C111.128 20.0801 111.182 20.1422 111.294 20.2295C111.459 20.3474 111.651 20.4221 111.853 20.4467C112.154 20.4808 112.458 20.4756 112.758 20.4312C113.137 20.3691 113.525 20.4024 113.889 20.5282C114.075 20.6124 114.235 20.7467 114.351 20.9162C114.453 21.0675 114.546 21.2242 114.631 21.3857C114.707 21.5267 114.801 21.6571 114.911 21.7737C115.008 21.8723 115.12 21.9554 115.242 22.0201C115.422 22.1143 115.619 22.1692 115.822 22.1811C115.971 22.1792 116.05 22.1675 116.052 22.1772Z" fill="#455A64"/>
<path d="M117.3 33.1267C117.291 33.1267 117.353 32.9987 117.424 32.7581C117.521 32.4204 117.564 32.0695 117.552 31.7183C117.538 31.1984 117.396 30.69 117.14 30.2381C116.999 29.9839 116.784 29.7569 116.608 29.4776C116.515 29.3353 116.45 29.1767 116.415 29.01C116.385 28.8346 116.399 28.6544 116.458 28.4862C116.566 28.1506 116.759 27.8693 116.802 27.5609C116.844 27.2524 116.697 26.9789 116.55 26.7208C116.475 26.5953 116.406 26.4658 116.343 26.3328C116.287 26.2039 116.25 26.0673 116.233 25.9274C116.215 25.6809 116.223 25.4331 116.256 25.1882C116.318 24.8421 116.286 24.4856 116.164 24.1562C116.109 24.0407 116.031 23.9378 115.936 23.8535C115.936 23.8535 115.945 23.8535 115.959 23.8652C115.982 23.8766 116.003 23.8916 116.021 23.9098C116.096 23.973 116.158 24.0517 116.2 24.1406C116.34 24.4729 116.384 24.838 116.326 25.1941C116.299 25.4344 116.296 25.6767 116.316 25.9177C116.364 26.1887 116.471 26.4458 116.63 26.6704C116.712 26.8015 116.783 26.9398 116.84 27.0836C116.901 27.2389 116.921 27.4072 116.898 27.5725C116.852 27.912 116.653 28.1991 116.552 28.5153C116.5 28.6679 116.486 28.8313 116.512 28.9906C116.545 29.1448 116.607 29.2914 116.693 29.4233C116.858 29.6929 117.08 29.9238 117.221 30.1896C117.48 30.6568 117.618 31.1817 117.623 31.7163C117.629 32.0742 117.575 32.4305 117.461 32.7698C117.43 32.8616 117.393 32.951 117.349 33.0375C117.337 33.0694 117.321 33.0994 117.3 33.1267Z" fill="#455A64"/>
<path d="M109.426 69.2745C109.426 69.2745 108.123 56.8895 108.048 52.3131C107.972 47.7366 110.099 43.2203 110.099 43.2203L118.428 42.873C118.428 42.873 120.075 47.5155 120.104 49.469C120.162 53.2598 119.101 57.0021 119.223 60.0091L119.501 69.2823" fill="#263238"/>
<path d="M119.782 54.0469C119.738 54.0847 119.692 54.1197 119.644 54.1516L119.569 54.204L119.488 54.2836C119.416 54.3457 119.351 54.4153 119.294 54.4911C119.026 54.8209 118.83 55.4126 118.643 56.1479C118.547 56.5557 118.406 56.9514 118.221 57.3274C118.165 57.4304 118.101 57.5284 118.028 57.6204C117.993 57.6669 117.96 57.7174 117.92 57.762L117.792 57.89C117.61 58.0614 117.397 58.1981 117.166 58.2935C116.7 58.4992 116.172 58.5962 115.693 58.8387C115.201 59.1039 114.822 59.5378 114.624 60.0609C114.388 60.5866 114.237 61.1376 114.044 61.6536C113.85 62.1697 113.589 62.6624 113.174 62.9767C112.776 63.2538 112.304 63.4033 111.82 63.4054C111.372 63.4326 110.956 63.419 110.583 63.4753C110.247 63.5102 109.926 63.6319 109.651 63.8284C109.45 63.9859 109.3 64.199 109.218 64.4414C109.166 64.5943 109.155 64.7581 109.185 64.9167C109.208 65.0253 109.237 65.0777 109.231 65.0797C109.2 65.0309 109.178 64.9771 109.166 64.9206C109.125 64.7587 109.13 64.5887 109.181 64.4298C109.258 64.1754 109.41 63.9502 109.616 63.7837C109.898 63.5703 110.232 63.4363 110.583 63.3957C110.97 63.3337 111.381 63.3414 111.824 63.3123C112.294 63.3092 112.752 63.1631 113.137 62.8933C113.528 62.5507 113.816 62.1061 113.97 61.609C114.163 61.0988 114.305 60.5459 114.55 60.0104C114.758 59.4658 115.155 59.0147 115.668 58.7397C116.166 58.4914 116.694 58.3964 117.148 58.1985C117.371 58.1061 117.575 57.9747 117.752 57.8105L117.873 57.6883C117.912 57.6456 117.945 57.5971 117.98 57.5525C118.048 57.4643 118.108 57.3701 118.16 57.2712C118.345 56.9003 118.488 56.5099 118.587 56.1072C118.78 55.3738 118.991 54.7744 119.275 54.4426C119.332 54.367 119.397 54.2981 119.468 54.237C119.499 54.2098 119.526 54.1827 119.554 54.1613L119.633 54.1109C119.681 54.0866 119.731 54.0652 119.782 54.0469Z" fill="#FAFAFA"/>
<path d="M119.832 48.3164C119.841 48.3709 119.844 48.4261 119.843 48.4813C119.843 48.6415 119.823 48.801 119.785 48.9566C119.619 49.5241 119.292 50.0309 118.844 50.4155C118.548 50.6882 118.224 50.9282 117.877 51.1313C117.504 51.3525 117.092 51.564 116.669 51.8045C116.224 52.0438 115.81 52.3363 115.435 52.6756C115.051 53.0581 114.735 53.5036 114.5 53.9928C114.262 54.4887 113.992 54.9677 113.69 55.4265C113.536 55.6403 113.358 55.8356 113.16 56.0085C112.964 56.1754 112.749 56.318 112.52 56.4334C112.104 56.6382 111.672 56.805 111.226 56.9319C110.813 57.06 110.426 57.1744 110.09 57.3199C109.784 57.4418 109.494 57.598 109.224 57.7855C109.02 57.9271 108.837 58.0962 108.68 58.288C108.549 58.4544 108.439 58.6369 108.354 58.8312C108.367 58.7774 108.385 58.7249 108.408 58.6741C108.471 58.5275 108.552 58.3894 108.649 58.2628C108.804 58.0628 108.986 57.8864 109.191 57.739C109.462 57.5448 109.755 57.3821 110.063 57.254C110.435 57.1017 110.815 56.969 111.201 56.8563C111.64 56.7264 112.067 56.5589 112.477 56.3558C112.695 56.2419 112.899 56.1039 113.086 55.9445C113.277 55.774 113.448 55.5827 113.597 55.3741C113.895 54.9176 114.163 54.4419 114.399 53.9502C114.642 53.45 114.969 52.9958 115.366 52.6077C115.747 52.2633 116.169 51.9675 116.622 51.7269C117.048 51.4883 117.46 51.2807 117.833 51.0615C118.179 50.8652 118.503 50.6324 118.799 50.367C119.244 49.9939 119.573 49.5022 119.751 48.9488C119.8 48.7416 119.827 48.5295 119.832 48.3164Z" fill="#FAFAFA"/>
<path d="M108.091 52.9606C108.083 52.9486 108.077 52.9355 108.073 52.9218C108.059 52.8844 108.046 52.8461 108.036 52.8073C108.003 52.653 108.01 52.4927 108.056 52.3417C108.164 51.9537 108.591 51.4551 109.28 51.2087C109.624 51.0904 110.012 51.0147 110.418 50.9139C110.755 50.8578 111.074 50.7217 111.348 50.5168C111.622 50.312 111.844 50.0444 111.994 49.7363C112.104 49.5102 112.2 49.2776 112.282 49.0398C112.433 48.5234 112.639 48.0246 112.895 47.5518C113.189 47.0871 113.634 46.7394 114.155 46.5683C114.63 46.4139 115.113 46.2908 115.603 46.1997C116.041 46.1154 116.464 45.9704 116.862 45.769C117.199 45.5759 117.489 45.311 117.713 44.993C118.043 44.5338 118.231 43.9873 118.254 43.4216C118.255 43.214 118.241 43.0065 118.213 42.8008C118.272 43.0023 118.299 43.2118 118.293 43.4216C118.285 43.9996 118.103 44.5617 117.771 45.0337C117.544 45.3623 117.248 45.636 116.903 45.8349C116.5 46.0439 116.07 46.1948 115.625 46.2831C115.139 46.3756 114.66 46.4994 114.19 46.6536C113.69 46.8181 113.262 47.1521 112.98 47.5984C112.728 48.0648 112.525 48.5563 112.375 49.065C112.291 49.3071 112.192 49.5436 112.079 49.7731C111.964 49.9936 111.819 50.1962 111.646 50.3745C111.306 50.6853 110.888 50.8966 110.438 50.9856C110.028 51.0904 109.641 51.1564 109.303 51.2689C108.632 51.4978 108.207 51.9692 108.092 52.3456C108.046 52.4907 108.033 52.6448 108.056 52.7957C108.072 52.8495 108.084 52.9047 108.091 52.9606Z" fill="#FAFAFA"/>
<path d="M119.117 63.4375C119.125 63.4778 119.129 63.5187 119.13 63.5597C119.134 63.6773 119.122 63.7947 119.093 63.9089C118.972 64.3296 118.715 64.698 118.363 64.9565C118.127 65.1446 117.867 65.2987 117.589 65.4144C117.294 65.5405 116.967 65.6413 116.623 65.748C116.265 65.8528 115.916 65.9824 115.577 66.136C115.224 66.305 114.908 66.5416 114.647 66.8325C114.365 67.1274 114.121 67.4514 113.85 67.7385C113.591 68.0166 113.291 68.2522 112.959 68.4369C112.395 68.7459 111.763 68.9111 111.12 68.918C110.69 68.9227 110.262 68.8511 109.856 68.7065C109.746 68.6685 109.639 68.6224 109.535 68.5688C109.497 68.5531 109.462 68.5329 109.429 68.5087C109.468 68.5194 109.506 68.533 109.543 68.5494C109.649 68.595 109.757 68.6351 109.868 68.6697C110.273 68.7971 110.696 68.8568 111.12 68.8462C111.749 68.8299 112.365 68.6615 112.915 68.3554C113.236 68.1728 113.527 67.9418 113.779 67.6706C114.044 67.3873 114.285 67.0653 114.573 66.7627C114.85 66.4608 115.184 66.2169 115.555 66.0449C115.9 65.8906 116.254 65.7609 116.617 65.6569C116.957 65.5521 117.282 65.4629 117.584 65.3348C117.853 65.224 118.107 65.0772 118.338 64.8983C118.684 64.6528 118.942 64.3018 119.074 63.8973C119.103 63.7457 119.117 63.5918 119.117 63.4375Z" fill="#FAFAFA"/>
<path d="M118.167 37.7254L116.554 37.7642C116.492 38.0904 116.369 38.4018 116.191 38.6818C114.838 36.3344 113.799 33.1916 113.54 31.9286C113.579 31.8025 113.624 31.6629 113.68 31.5077C113.72 31.2719 113.713 31.0305 113.658 30.7976C113.612 30.5163 113.535 30.138 113.511 29.9634C113.44 29.428 113.353 29.3446 113.167 29.4047C112.916 29.4881 113.272 30.9043 113.065 30.9354C112.953 30.9509 112.817 30.4659 112.779 30.0682C112.74 29.6705 112.558 28.4444 112.429 28.3629C112.235 28.2426 112.067 28.4328 112.117 28.8285C112.168 29.2243 112.228 30.4271 112.019 30.4445C111.81 30.462 111.632 28.4289 111.632 28.4289C111.632 28.4289 111.665 27.9866 111.421 27.9963C110.985 28.0157 111.327 30.1574 111.363 30.3611C111.391 30.5008 111.17 30.528 111.143 30.3747C111.116 30.2214 111.015 28.3435 110.563 28.359C110.219 28.359 110.828 30.1225 110.635 30.5299C110.441 30.9373 110.31 29.1486 109.983 29.1719C109.861 29.1816 109.77 29.2049 109.995 30.2156C110.209 31.0187 110.468 31.8094 110.768 32.5844C111.286 35.3877 113.56 44.3563 117.123 42.715C119.118 41.7955 119.926 37.7254 119.926 37.7254H118.167Z" fill="#B78876"/>
<path d="M111.293 30.4965C111.309 30.5004 111.325 30.5004 111.34 30.4965C111.363 30.4894 111.383 30.4741 111.396 30.4535C111.409 30.4329 111.415 30.4082 111.411 30.384C111.411 30.2637 111.388 30.0891 111.361 29.8621C111.316 29.5886 111.286 29.3127 111.272 29.0357C111.272 28.8727 111.272 28.6981 111.282 28.5138C111.285 28.4201 111.294 28.3268 111.311 28.2345C111.326 28.1472 111.384 28.0405 111.452 28.0579H111.464C111.531 28.0579 111.585 28.1084 111.607 28.1899C111.631 28.2743 111.64 28.3623 111.634 28.4498C111.674 28.9931 111.743 29.5339 111.841 30.0697C111.856 30.1415 111.872 30.2152 111.895 30.2889C111.905 30.3267 111.918 30.3636 111.933 30.3995C111.943 30.4195 111.954 30.4389 111.966 30.4577C111.975 30.4719 111.987 30.4838 112.001 30.4926C112.015 30.5014 112.031 30.5067 112.047 30.5082C112.076 30.5051 112.102 30.4936 112.124 30.4753C112.146 30.457 112.161 30.4327 112.169 30.4053C112.186 30.3674 112.198 30.3277 112.206 30.287C112.221 30.2088 112.231 30.1298 112.237 30.0503C112.255 29.7271 112.25 29.403 112.223 29.0803C112.199 28.9192 112.192 28.7559 112.204 28.5934C112.211 28.5232 112.245 28.4585 112.299 28.413C112.311 28.4056 112.325 28.4009 112.339 28.3992C112.354 28.3975 112.368 28.3989 112.382 28.4033C112.398 28.4072 112.414 28.4138 112.428 28.4227C112.438 28.43 112.446 28.4402 112.45 28.4518C112.511 28.6091 112.555 28.7722 112.583 28.9387C112.618 29.1094 112.647 29.286 112.674 29.4625C112.701 29.639 112.726 29.8175 112.747 29.9979C112.764 30.1841 112.794 30.3689 112.836 30.5508C112.859 30.6439 112.888 30.7353 112.923 30.8244C112.943 30.8743 112.97 30.9207 113.004 30.9621C113.018 30.9793 113.035 30.9925 113.055 31C113.076 31.0076 113.097 31.0092 113.119 31.0048C113.138 30.9983 113.156 30.9869 113.17 30.9716C113.183 30.9563 113.193 30.9377 113.198 30.9175C113.221 30.8184 113.228 30.7162 113.219 30.6149C113.219 30.5179 113.207 30.4209 113.198 30.3277C113.184 30.1648 113.169 30.0038 113.163 29.8447C113.158 29.7665 113.158 29.6881 113.163 29.6099C113.167 29.5753 113.175 29.5414 113.188 29.5091C113.192 29.4984 113.198 29.4885 113.206 29.48H113.231C113.358 29.4276 113.401 29.6061 113.436 29.7496C113.47 29.8932 113.484 30.0561 113.515 30.2094C113.565 30.514 113.631 30.8186 113.664 31.1096C113.686 31.2489 113.681 31.3913 113.648 31.5286C113.602 31.6683 113.555 31.806 113.511 31.9438V31.9573V31.969C113.737 32.9221 114.026 33.8592 114.375 34.7742C114.681 35.6026 114.988 36.3262 115.257 36.9082C115.526 37.4902 115.769 37.9461 115.935 38.2526L116.129 38.5999C116.15 38.6413 116.175 38.6803 116.204 38.7163C116.188 38.6732 116.168 38.6317 116.144 38.5921L115.951 38.2371C115.792 37.9248 115.564 37.4611 115.301 36.8791C115.038 36.2971 114.741 35.5735 114.443 34.7451C114.102 33.8315 113.819 32.8971 113.596 31.9476V31.9748C113.641 31.839 113.685 31.7013 113.731 31.5635C113.772 31.4123 113.78 31.2543 113.755 31.0999C113.72 30.7953 113.656 30.5004 113.606 30.1939C113.577 30.0426 113.557 29.8874 113.526 29.7283C113.524 29.6466 113.511 29.5655 113.486 29.4877C113.464 29.4404 113.426 29.4021 113.38 29.3791C113.33 29.3628 113.276 29.3628 113.227 29.3791H113.196C113.179 29.3843 113.164 29.3929 113.151 29.4043C113.13 29.4226 113.113 29.4459 113.103 29.4722C113.085 29.5142 113.074 29.5587 113.07 29.6041C113.064 29.6881 113.064 29.7724 113.07 29.8563C113.07 30.0193 113.093 30.1822 113.107 30.3452C113.107 30.4403 113.122 30.5392 113.126 30.6265C113.134 30.714 113.129 30.8022 113.113 30.8884C113.113 30.9078 113.097 30.9039 113.113 30.9136L113.101 30.902C113.077 30.8703 113.057 30.8349 113.043 30.7972C113.009 30.7133 112.982 30.6271 112.96 30.5392C112.918 30.3625 112.888 30.1829 112.873 30.0018C112.852 29.8195 112.827 29.639 112.798 29.4606C112.771 29.2821 112.74 29.1075 112.705 28.9329C112.676 28.7552 112.626 28.5814 112.558 28.4149C112.545 28.3871 112.524 28.3636 112.498 28.347C112.475 28.3339 112.451 28.3235 112.426 28.316C112.399 28.3087 112.37 28.307 112.342 28.311C112.314 28.315 112.287 28.3246 112.262 28.3392C112.222 28.3691 112.189 28.407 112.164 28.4504C112.14 28.4938 112.124 28.5418 112.119 28.5914C112.106 28.6796 112.106 28.7691 112.119 28.8572C112.119 28.9406 112.138 29.0221 112.144 29.1036C112.171 29.421 112.177 29.7399 112.162 30.0581C112.157 30.1337 112.147 30.2089 112.133 30.2831C112.127 30.3178 112.117 30.3517 112.104 30.384C112.099 30.3968 112.091 30.4086 112.082 30.4189C112.082 30.4364 112.069 30.4189 112.071 30.4422C112.071 30.4228 112.071 30.4422 112.071 30.417C112.062 30.4039 112.054 30.3903 112.047 30.3762C112.034 30.3452 112.022 30.3103 112.011 30.2773C111.989 30.2075 111.974 30.1357 111.959 30.0658C111.858 29.5346 111.785 28.9984 111.74 28.4595C111.746 28.362 111.735 28.2642 111.707 28.1705C111.694 28.1216 111.668 28.0772 111.632 28.0424C111.613 28.0241 111.59 28.0098 111.566 28.0005C111.541 27.9911 111.515 27.9869 111.489 27.9881H111.5C111.468 27.9833 111.434 27.9883 111.404 28.0024C111.374 28.0166 111.349 28.0393 111.332 28.0676C111.303 28.1139 111.284 28.1653 111.274 28.219C111.258 28.3152 111.249 28.4124 111.247 28.51C111.247 28.704 111.247 28.8727 111.247 29.0376C111.265 29.3164 111.301 29.5937 111.353 29.868C111.386 30.093 111.411 30.2676 111.423 30.3859C111.427 30.4067 111.423 30.428 111.413 30.4464C111.403 30.4648 111.386 30.4791 111.367 30.4868C111.309 30.4926 111.292 30.4946 111.293 30.4965Z" fill="#A36957"/>
<path d="M98.7021 40.3955C98.3248 40.3874 97.9482 40.4311 97.5827 40.5255C96.5832 40.7893 94.8606 41.8369 94.7891 43.1309H96.0419C96.0419 43.1309 95.3401 44.6286 95.545 44.4889C96.0805 44.128 97.1439 43.0436 97.1439 43.0436L98.7021 40.3955Z" fill="#B78876"/>
<path d="M115.779 17.8474C115.75 17.8474 115.638 16.8114 115.526 15.5194C115.414 14.2274 115.344 13.1914 115.371 13.1914C115.398 13.1914 115.512 14.2274 115.624 15.5194C115.736 16.8114 115.806 17.8474 115.779 17.8474Z" fill="#263238"/>
<path d="M121.271 13.2716C121.293 13.2872 120.448 14.5191 119.383 16.0226C118.317 17.5261 117.434 18.7386 117.411 18.7153C117.387 18.692 118.234 17.4679 119.299 15.9644C120.365 14.4609 121.248 13.2561 121.271 13.2716Z" fill="#263238"/>
<path d="M123.553 18.8542C123.553 18.8814 122.571 19.1084 121.349 19.3606C120.127 19.6128 119.13 19.7951 119.124 19.768C119.118 19.7408 120.104 19.5138 121.328 19.2616C122.552 19.0094 123.54 18.8271 123.553 18.8542Z" fill="#263238"/>
<path d="M57.8076 45.5015L50.9636 80.7707L50.0742 85.3879L95.7009 85.1667C97.7502 85.157 99.5676 83.3315 100.223 80.6194L108.316 47.3232C108.817 45.2648 107.718 43.1231 106.164 43.125L59.9729 43.1735C58.9676 43.1716 58.0666 44.126 57.8076 45.5015Z" fill="#FF5C46"/>
<g opacity="0.5">
<path d="M57.8076 45.5015L50.9636 80.7707L50.0742 85.3879L95.7009 85.1667C97.7502 85.157 99.5676 83.3315 100.223 80.6194L108.316 47.3232C108.817 45.2648 107.718 43.1231 106.164 43.125L59.9729 43.1735C58.9676 43.1716 58.0666 44.126 57.8076 45.5015Z" fill="black"/>
</g>
<path d="M91.3291 78.3769L86.4958 39.3034C86.3025 37.7029 85.0284 36.5079 83.5262 36.5137L72.9315 36.5467C72.5378 36.5511 72.1491 36.636 71.7891 36.7961C71.4292 36.9562 71.1055 37.1882 70.8377 37.4779L65.8111 42.8459L36.3471 43.0049C34.5471 43.0146 33.1629 44.7257 33.4007 46.6463L37.8879 82.7594C38.0813 84.358 39.3553 85.5511 40.8537 85.5491L92.2127 85.4463C97.9315 85.5646 98.4786 83.871 98.4786 83.871C91.913 85.328 91.3291 78.3867 91.3291 78.3769Z" fill="#FF5C46"/>
<g opacity="0.5">
<path d="M69.1826 70.563L67.4504 72.4293L54.1104 60.3858L55.8426 58.5195L69.1826 70.563Z" fill="white"/>
<path d="M66.7251 58.1055L68.6391 59.834L56.5693 72.8417L54.6533 71.1132L66.7251 58.1055Z" fill="white"/>
</g>
<path d="M98.6621 20.1339C98.5995 20.1074 98.5457 20.0636 98.507 20.0076C98.4683 19.9516 98.4463 19.8857 98.4436 19.8176L98.3663 18.0173C98.3635 17.9614 98.3738 17.9056 98.3963 17.8543C98.4188 17.803 98.4528 17.7577 98.4958 17.722C98.5388 17.6862 98.5894 17.661 98.6438 17.6483C98.6981 17.6355 98.7547 17.6357 98.809 17.6487C98.9587 17.6811 99.1134 17.6825 99.2637 17.6528C99.4139 17.6232 99.5566 17.563 99.6828 17.4761C99.7991 17.4022 99.8991 17.3052 99.9765 17.1911C100.054 17.077 100.107 16.9482 100.133 16.8126C100.151 16.6753 100.141 16.5358 100.103 16.4025C100.066 16.2692 100.003 16.1448 99.9168 16.0366C99.8262 15.9134 99.7123 15.8095 99.5816 15.7306C99.4508 15.6517 99.3059 15.5994 99.155 15.5768C98.8508 15.5598 98.5498 15.6464 98.3007 15.8224C98.0516 15.9984 97.869 16.2537 97.7824 16.5468C97.7535 16.6356 97.6916 16.7098 97.6095 16.754C97.5275 16.7981 97.4316 16.8088 97.3419 16.7838C97.2522 16.7588 97.1756 16.7 97.128 16.6198C97.0804 16.5395 97.0655 16.4438 97.0864 16.3528C97.2179 15.8917 97.5036 15.4902 97.8955 15.2157C98.2874 14.9412 98.7615 14.8104 99.2382 14.8454C99.4863 14.8786 99.7252 14.9614 99.9407 15.0891C100.156 15.2167 100.344 15.3865 100.493 15.5884C100.638 15.7756 100.744 15.9899 100.804 16.2189C100.865 16.4478 100.88 16.6866 100.847 16.9212C100.803 17.1555 100.711 17.3782 100.578 17.5758C100.445 17.7733 100.274 17.9414 100.073 18.0697C99.7833 18.2656 99.4445 18.3765 99.0951 18.3898L99.155 19.7788C99.1573 19.8399 99.1441 19.9005 99.1168 19.955C99.0895 20.0096 99.0489 20.0564 98.9988 20.091C98.9487 20.1256 98.8906 20.147 98.8301 20.1532C98.7695 20.1593 98.7084 20.15 98.6524 20.1261L98.6621 20.1339Z" fill="#FF5C46"/>
<path d="M99.1915 20.872C99.1955 20.9306 99.1822 20.9891 99.1531 21.04C99.1241 21.091 99.0806 21.1322 99.0282 21.1584C98.9758 21.1845 98.9169 21.1945 98.8588 21.1871C98.8008 21.1796 98.7462 21.155 98.7021 21.1165C98.658 21.0779 98.6262 21.027 98.6109 20.9704C98.5956 20.9137 98.5974 20.8537 98.616 20.798C98.6347 20.7424 98.6694 20.6935 98.7157 20.6576C98.762 20.6218 98.8179 20.6005 98.8763 20.5965C98.9151 20.5936 98.9541 20.5985 98.9909 20.6108C99.0278 20.6231 99.0619 20.6426 99.0912 20.6682C99.1205 20.6939 99.1445 20.7251 99.1617 20.76C99.1789 20.795 99.189 20.8331 99.1915 20.872Z" fill="#FF5C46"/>
<path d="M92.4499 17.5944C92.4582 17.556 92.464 17.5171 92.4673 17.478C92.4673 17.3926 92.4886 17.284 92.5041 17.1307C92.5231 16.9426 92.5547 16.7559 92.5988 16.572C92.6239 16.4634 92.6374 16.3431 92.6761 16.2209C92.7148 16.0987 92.7535 15.9667 92.796 15.8329C93.0198 15.1696 93.346 14.5458 93.7627 13.9841C94.3087 13.2567 95.0009 12.6526 95.7946 12.2109C96.2463 11.9553 96.7274 11.756 97.2272 11.6173C97.7666 11.4738 98.3222 11.4008 98.8802 11.4C99.1741 11.3952 99.468 11.4108 99.7599 11.4465C99.9087 11.4621 100.056 11.5009 100.205 11.5261C100.355 11.552 100.504 11.5883 100.649 11.6347C101.259 11.8056 101.838 12.0693 102.368 12.4165C103.546 13.1831 104.443 14.3135 104.924 15.6369C105.183 16.3459 105.314 17.0954 105.31 17.8505C105.318 18.6283 105.181 19.4008 104.906 20.128L104.819 20.3492L104.808 20.3783L104.819 20.4074C105.305 21.5268 105.786 22.6268 106.24 23.6918L106.322 23.5987L103.422 22.4832L103.387 22.4696L103.358 22.4968C102.591 23.2427 101.651 23.7865 100.624 24.0798C99.7461 24.3223 98.827 24.3753 97.9272 24.2352C97.0274 24.0951 96.1674 23.7651 95.4041 23.267C94.7788 22.8555 94.2277 22.3406 93.7743 21.7441C93.1171 20.8734 92.6913 19.8493 92.5369 18.7681C92.5137 18.5741 92.4944 18.4111 92.477 18.2637C92.4596 18.1163 92.477 17.996 92.4673 17.8932C92.4577 17.7903 92.4673 17.7224 92.4673 17.6662C92.477 17.6647 92.4857 17.6596 92.4918 17.652C92.4978 17.6443 92.5008 17.6347 92.5001 17.6249C92.4993 17.6151 92.495 17.606 92.4878 17.5994C92.4807 17.5927 92.4713 17.589 92.4615 17.589C92.4518 17.589 92.4424 17.5927 92.4352 17.5994C92.4281 17.606 92.4237 17.6151 92.423 17.6249C92.4222 17.6347 92.4252 17.6443 92.4313 17.652C92.4373 17.6596 92.4461 17.6647 92.4557 17.6662C92.4557 17.7224 92.4557 17.7981 92.4557 17.8932C92.4557 17.9882 92.4557 18.1201 92.4557 18.2676C92.4557 18.415 92.4886 18.5838 92.5079 18.7759C92.5715 19.2425 92.6823 19.7014 92.8385 20.1455C93.0598 20.732 93.3576 21.2865 93.724 21.7945C94.1793 22.4017 94.7344 22.9265 95.3654 23.3465C96.1382 23.857 97.0103 24.1968 97.9239 24.3433C98.8376 24.4898 99.7718 24.4397 100.665 24.1962C101.704 23.8999 102.655 23.3508 103.433 22.5977L103.369 22.6112L106.269 23.7326L106.414 23.7888L106.351 23.6394C105.89 22.5744 105.415 21.4763 104.932 20.355V20.4113L105.02 20.1843C105.303 19.4412 105.443 18.6515 105.434 17.8563C105.44 17.0852 105.309 16.3192 105.048 15.5943C104.556 14.2444 103.639 13.0925 102.436 12.3137C101.893 11.9584 101.298 11.69 100.672 11.5183C100.524 11.4713 100.373 11.4357 100.22 11.4116C100.069 11.3845 99.9203 11.3457 99.7695 11.3321C99.4739 11.2953 99.1761 11.2784 98.8783 11.2816C98.3113 11.2841 97.7471 11.361 97.2001 11.5106C96.6937 11.6549 96.2063 11.8594 95.7482 12.1197C94.9466 12.5722 94.2501 13.1905 93.7046 13.9336C93.2893 14.5046 92.9675 15.1386 92.7515 15.8115C92.7109 15.9512 92.6723 16.0851 92.6375 16.1995C92.6067 16.3165 92.5822 16.435 92.564 16.5546C92.5225 16.7397 92.4954 16.9278 92.4828 17.1172C92.4712 17.2665 92.4635 17.381 92.4577 17.4664C92.4495 17.5085 92.4469 17.5516 92.4499 17.5944Z" fill="#263238"/>
</svg>
