<svg width="25" height="26" viewBox="0 0 25 26" fill="none" xmlns="http://www.w3.org/2000/svg">
<path d="M23.5943 22.5599L16.3482 15.3138C17.4727 13.8601 18.0809 12.0827 18.0809 10.2133C18.0809 7.97559 17.2076 5.87737 15.6283 4.29534C14.0491 2.71331 11.9453 1.84277 9.71038 1.84277C7.47545 1.84277 5.37165 2.7161 3.79241 4.29534C2.21038 5.87458 1.33984 7.97559 1.33984 10.2133C1.33984 12.4482 2.21317 14.552 3.79241 16.1313C5.37165 17.7133 7.47266 18.5838 9.71038 18.5838C11.5798 18.5838 13.3544 17.9756 14.808 16.8539L22.0541 24.0972C22.0754 24.1185 22.1006 24.1354 22.1284 24.1469C22.1561 24.1584 22.1859 24.1643 22.216 24.1643C22.246 24.1643 22.2758 24.1584 22.3035 24.1469C22.3313 24.1354 22.3565 24.1185 22.3778 24.0972L23.5943 22.8835C23.6156 22.8623 23.6324 22.837 23.6439 22.8093C23.6554 22.7815 23.6614 22.7517 23.6614 22.7217C23.6614 22.6916 23.6554 22.6619 23.6439 22.6341C23.6324 22.6063 23.6156 22.5811 23.5943 22.5599ZM14.13 14.633C12.947 15.8132 11.3789 16.4633 9.71038 16.4633C8.04185 16.4633 6.47377 15.8132 5.29074 14.633C4.11049 13.4499 3.46038 11.8818 3.46038 10.2133C3.46038 8.54478 4.11049 6.97391 5.29074 5.79367C6.47377 4.61342 8.04185 3.96331 9.71038 3.96331C11.3789 3.96331 12.9498 4.61063 14.13 5.79367C15.3103 6.9767 15.9604 8.54478 15.9604 10.2133C15.9604 11.8818 15.3103 13.4527 14.13 14.633Z" fill="black" fill-opacity="0.85"/>
</svg>
