<svg width="30" height="31" viewBox="0 0 30 31" fill="none" xmlns="http://www.w3.org/2000/svg">
<path d="M22.7375 22.6875H9.42499C8.18749 22.6875 6.99999 22.1625 6.16249 21.25C5.32499 20.3375 4.9 19.1125 5 17.875L6.0375 5.425C6.075 5.0375 5.93749 4.66251 5.67499 4.37501C5.41249 4.08751 5.04999 3.9375 4.66249 3.9375H2.5C1.9875 3.9375 1.5625 3.5125 1.5625 3C1.5625 2.4875 1.9875 2.0625 2.5 2.0625H4.67501C5.58751 2.0625 6.44999 2.45 7.06249 3.1125C7.39999 3.4875 7.64999 3.92501 7.78749 4.41251H23.4C24.6625 4.41251 25.825 4.9125 26.675 5.8125C27.5125 6.725 27.9375 7.9125 27.8375 9.175L27.1625 18.55C27.025 20.8375 25.025 22.6875 22.7375 22.6875ZM7.85 6.27499L6.875 18.025C6.8125 18.75 7.05 19.4375 7.5375 19.975C8.025 20.5125 8.69999 20.8 9.42499 20.8H22.7375C24.0375 20.8 25.2125 19.7 25.3125 18.4L25.9875 9.02501C26.0375 8.28751 25.8 7.58751 25.3125 7.07501C24.825 6.55001 24.15 6.26248 23.4125 6.26248H7.85V6.27499Z" fill="black"/>
<path d="M20.3125 28.9375C18.9375 28.9375 17.8125 27.8125 17.8125 26.4375C17.8125 25.0625 18.9375 23.9375 20.3125 23.9375C21.6875 23.9375 22.8125 25.0625 22.8125 26.4375C22.8125 27.8125 21.6875 28.9375 20.3125 28.9375ZM20.3125 25.8125C19.9625 25.8125 19.6875 26.0875 19.6875 26.4375C19.6875 26.7875 19.9625 27.0625 20.3125 27.0625C20.6625 27.0625 20.9375 26.7875 20.9375 26.4375C20.9375 26.0875 20.6625 25.8125 20.3125 25.8125Z" fill="black"/>
<path d="M10.3125 28.9375C8.9375 28.9375 7.8125 27.8125 7.8125 26.4375C7.8125 25.0625 8.9375 23.9375 10.3125 23.9375C11.6875 23.9375 12.8125 25.0625 12.8125 26.4375C12.8125 27.8125 11.6875 28.9375 10.3125 28.9375ZM10.3125 25.8125C9.9625 25.8125 9.6875 26.0875 9.6875 26.4375C9.6875 26.7875 9.9625 27.0625 10.3125 27.0625C10.6625 27.0625 10.9375 26.7875 10.9375 26.4375C10.9375 26.0875 10.6625 25.8125 10.3125 25.8125Z" fill="black"/>
<path d="M26.25 11.4375H11.25C10.7375 11.4375 10.3125 11.0125 10.3125 10.5C10.3125 9.9875 10.7375 9.5625 11.25 9.5625H26.25C26.7625 9.5625 27.1875 9.9875 27.1875 10.5C27.1875 11.0125 26.7625 11.4375 26.25 11.4375Z" fill="black"/>
</svg>
